{"title":"Oru Naal Koothu (2016) DVDScr TC Untouched TAMiL - Team TMR","uid":14880621,"size":718112441,"categoryP":"video","categoryS":"movies","magnet":"?xt=urn:btih:bed2ab2d55f730164f5cdf382c2579919b86d703&amp;dn=Oru+Naal+Koothu+%282016%29+DVDScr+TC+Untouched+TAMiL+-+Team+TMR&amp;tr=udp%3A%2F%2Ftracker.leechers-paradise.org%3A6969&amp;tr=udp%3A%2F%2Fzer0day.ch%3A1337&amp;tr=udp%3A%2F%2Fopen.demonii.com%3A1337&amp;tr=udp%3A%2F%2Ftracker.coppersurfer.tk%3A6969&amp;tr=udp%3A%2F%2Fexodus.desync.com%3A6969","seeders":1,"leechers":2,"uploader":"CDRiPD","files":2,"time":1465679504,"description":"Oru Naal Koothu (2016) DVDScr TC Untouched TAMiL - Team TMR\r\n\r\n\r\nFormat                                   : Matroska\r\nFormat version                           : Version 4 / Version 2\r\nFile size                                : 685 MiB\r\nDuration                                 : 2h 16mn\r\nOverall bit rate mode                    : Variable\r\nOverall bit rate                         : 701 Kbps\r\nVideo\r\nFormat                                   : AVC\r\nFormat/Info                              : Advanced Video Codec\r\nFormat profile                           :   \r\nFormat settings, CABAC                   : Yes\r\nFormat settings, ReFrames                : 4 frames\r\nCodec ID                                 : V_MPEG4/ISO/AVC\r\nDuration                                 : 2h 16mn\r\nBit rate                                 : 597 Kbps\r\nWidth                                    : 680 pixels\r\nHeight                                   : 304 pixels\r\nDisplay aspect ratio                     : 2.25:1\r\nFrame rate mode                          : Constant\r\nFrame rate                               : 23.976 fps\r\nColor space                              : YUV\r\nChroma subsampling                       : 4:2:0\r\nBit depth                                : 8 bits\r\nScan type                                : Progressive\r\nBits/(Pixel*Frame)                       : 0.120\r\nStream size                              : 572 MiB (84%)\r\nWriting library                          : x264\r\n\r\nAudio\r\nFormat                                   : MPEG Audio\r\nFormat version                           : Version 1\r\nFormat profile                           : Layer 3\r\nMode                                     : Joint stereo\r\nMode extension                           : MS Stereo\r\nCodec ID                                 : A_MPEG/L3\r\nCodec ID/Hint                            : MP3\r\nDuration                                 : 2h 16mn\r\nBit rate mode                            : Variable\r\nBit rate                                 : 101 Kbps\r\nNominal bit rate                         : 128 Kbps\r\nChannel(s)                               : 2 channels\r\nSampling rate                            : 44.1 KHz\r\nCompression mode                         : Lossy\r\nStream size                              : 99.2 MiB (14%)\r\nLanguage                                 : Tamil\r\n\r\n\r\n\r\nScreen Shots:\r\n\r\n \nhttps://ititli.com/Xyf \nhttps://ititli.com/Xyu \nhttps://ititli.com/Xyv \nhttps://ititli.com/XyR \nhttps://ititli.com/Xyy \nhttps://ititli.com/Xy3 \nhttps://ititli.com/XyE \nhttps://ititli.com/XyQ \nhttps://ititli.com/XyS \nhttps://ititli.com/Xyc \nhttps://ititli.com/Xyi","torrent":{"xt":"urn:btih:bed2ab2d55f730164f5cdf382c2579919b86d703","amp;dn":"Oru+Naal+Koothu+%282016%29+DVDScr+TC+Untouched+TAMiL+-+Team+TMR","amp;tr":["udp%3A%2F%2Ftracker.leechers-paradise.org%3A6969","udp%3A%2F%2Fzer0day.ch%3A1337","udp%3A%2F%2Fopen.demonii.com%3A1337","udp%3A%2F%2Ftracker.coppersurfer.tk%3A6969","udp%3A%2F%2Fexodus.desync.com%3A6969"],"infoHash":"bed2ab2d55f730164f5cdf382c2579919b86d703","infoHashBuffer":{"type":"Buffer","data":[190,210,171,45,85,247,48,22,79,92,223,56,44,37,121,145,155,134,215,3]},"announce":[],"urlList":[]}}